<svg width="148" height="156" viewBox="0 0 148 156" fill="none" xmlns="http://www.w3.org/2000/svg">
<path d="M71.4814 1.89195C72.6636 0.0651409 75.3364 0.0651412 76.5186 1.89195L89.9808 22.6946C90.7523 23.8868 92.254 24.3748 93.579 23.8637L116.698 14.9469C118.728 14.1638 120.89 15.7349 120.773 17.9077L119.436 42.6503C119.36 44.0683 120.288 45.3457 121.66 45.7111L145.605 52.086C147.707 52.6458 148.533 55.1878 147.161 56.8767L131.537 76.1083C130.641 77.2105 130.641 78.7895 131.537 79.8917L147.161 99.1233C148.533 100.812 147.707 103.354 145.605 103.914L121.66 110.289C120.288 110.654 119.36 111.932 119.436 113.35L120.773 138.092C120.89 140.265 118.728 141.836 116.698 141.053L93.579 132.136C92.254 131.625 90.7523 132.113 89.9808 133.305L76.5186 154.108C75.3364 155.935 72.6636 155.935 71.4814 154.108L58.0192 133.305C57.2477 132.113 55.746 131.625 54.421 132.136L31.3024 141.053C29.2722 141.836 27.1098 140.265 27.2272 138.092L28.5636 113.35C28.6402 111.932 27.7121 110.654 26.3398 110.289L2.39525 103.914C0.292525 103.354 -0.533432 100.812 0.838651 99.1233L16.4631 79.8917C17.3586 78.7895 17.3586 77.2105 16.4631 76.1083L0.838652 56.8767C-0.533432 55.1878 0.292525 52.6458 2.39525 52.086L26.3398 45.7111C27.7121 45.3457 28.6402 44.0683 28.5636 42.6503L27.2272 17.9077C27.1098 15.7349 29.2722 14.1638 31.3024 14.9469L54.421 23.8637C55.746 24.3748 57.2477 23.8868 58.0192 22.6946L71.4814 1.89195Z" fill="url(#paint0_linear_74_207)"/>
<defs>
<linearGradient id="paint0_linear_74_207" x1="30.8" y1="4.4" x2="138" y2="158" gradientUnits="userSpaceOnUse">
<stop stop-color="#26E9CF"/>
<stop offset="1" stop-color="#25CDE1"/>
</linearGradient>
</defs>
</svg>
