<svg width="174" height="155" viewBox="0 0 174 155" fill="none" xmlns="http://www.w3.org/2000/svg">
<path d="M21.9386 120.356L24.1634 123.564L35.4436 115.743C48.9185 133.57 68.8002 138.047 84.3418 127.271C96.9755 118.511 99.3154 104.862 92.4743 83.3256L90.6412 77.4699L138.068 44.5851C148.1 60.1233 145.106 76.8979 132.08 87.3405L134.305 90.5491C149.101 78.805 152.475 59.688 141.277 42.3603L152.507 34.5736L150.282 31.365L139.002 39.1865C126.713 23.2833 107.375 18.9489 92.8362 29.0299C80.9545 37.2685 78.1246 50.9601 84.2544 70.6143L85.9598 75.9646L36.3773 110.344C25.5656 93.7879 27.3592 77.1029 39.6487 67.0968L37.424 63.8883C23.3296 75.1457 21.1056 94.2078 33.1687 112.569L21.9386 120.356ZM38.6522 113.518L87.1819 79.8684L88.7095 84.7482C95.0519 104.923 93.1465 116.415 82.117 124.062C68.1296 133.761 50.8255 129.576 38.6522 113.518ZM89.4191 73.566L88.0192 69.1916C82.3112 51.3236 84.6331 39.4689 95.061 32.2385C107.945 23.3046 124.84 27.3283 135.793 41.4112L89.4191 73.566Z" fill="white" fill-opacity="0.05"/>
</svg>
