<svg width="68" height="404" viewBox="0 0 68 404" fill="none" xmlns="http://www.w3.org/2000/svg">
<circle cx="33.8967" cy="369.735" r="32.8767" stroke="url(#paint0_linear_74_227)" stroke-width="2.04"/>
<circle cx="33.8967" cy="33.8967" r="32.8767" stroke="url(#paint1_linear_74_227)" stroke-width="2.04"/>
<path d="M42.0414 35.4611L37.8695 39.633M37.8695 35.4611L42.0414 39.633L37.8695 35.4611Z" stroke="#252160" stroke-width="2.08595" stroke-linecap="round" stroke-linejoin="round"/>
<path d="M42.0414 27.1173H34.7406L30.5687 41.719L27.4397 35.4611H25.3538" stroke="#252160" stroke-width="2.08595" stroke-linecap="round" stroke-linejoin="round"/>
<path d="M42.0413 378.475V380.686L40.164 379.466L35.1681 370.079C35.8565 369.86 36.4823 369.505 37.0246 369.036L42.0413 378.475ZM36.8265 365.041C36.8265 365.871 36.4968 366.667 35.91 367.254C35.3232 367.84 34.5274 368.17 33.6975 368.17H33.2386L27.2311 379.466L25.3537 380.686V378.475L31.3926 367.127C30.2453 365.844 30.3496 363.863 31.6429 362.705C32.2061 362.204 32.9362 361.912 33.6975 361.912V359.826C33.9741 359.826 34.2394 359.936 34.435 360.132C34.6306 360.327 34.7405 360.593 34.7405 360.869V362.1C35.9921 362.538 36.8265 363.717 36.8265 365.041ZM34.7405 365.041C34.7405 364.765 34.6306 364.499 34.435 364.304C34.2394 364.108 33.9741 363.998 33.6975 363.998C33.4209 363.998 33.1556 364.108 32.96 364.304C32.7644 364.499 32.6546 364.765 32.6546 365.041C32.6546 365.318 32.7644 365.583 32.96 365.779C33.1556 365.974 33.4209 366.084 33.6975 366.084C33.9741 366.084 34.2394 365.974 34.435 365.779C34.6306 365.583 34.7405 365.318 34.7405 365.041Z" fill="#252160"/>
<circle cx="33.8967" cy="201.816" r="32.8767" stroke="url(#paint2_linear_74_227)" stroke-width="2.04"/>
<path d="M33.6975 203.119V209.377H25.8752V203.119H33.6975ZM33.6975 201.555H25.8752C25.4603 201.555 25.0624 201.72 24.769 202.013C24.4756 202.306 24.3108 202.704 24.3108 203.119V209.377C24.3108 209.792 24.4756 210.19 24.769 210.483C25.0624 210.777 25.4603 210.942 25.8752 210.942H33.6975C34.1125 210.942 34.5104 210.777 34.8038 210.483C35.0972 210.19 35.262 209.792 35.262 209.377V203.119C35.262 202.704 35.0972 202.306 34.8038 202.013C34.5104 201.72 34.1125 201.555 33.6975 201.555Z" fill="#252160"/>
<path d="M42.3021 194.515V198.426H34.4798V194.515H42.3021ZM42.3021 192.95H34.4798C34.0649 192.95 33.667 193.115 33.3736 193.409C33.0802 193.702 32.9154 194.1 32.9154 194.515V198.426C32.9154 198.841 33.0802 199.239 33.3736 199.532C33.667 199.826 34.0649 199.99 34.4798 199.99H42.3021C42.7171 199.99 43.115 199.826 43.4084 199.532C43.7018 199.239 43.8666 198.841 43.8666 198.426V194.515C43.8666 194.1 43.7018 193.702 43.4084 193.409C43.115 193.115 42.7171 192.95 42.3021 192.95Z" fill="#252160"/>
<path d="M42.3021 203.119V207.03H38.3909V203.119H42.3021ZM42.3021 201.555H38.3909C37.976 201.555 37.5781 201.72 37.2847 202.013C36.9913 202.306 36.8265 202.704 36.8265 203.119V207.03C36.8265 207.445 36.9913 207.843 37.2847 208.137C37.5781 208.43 37.976 208.595 38.3909 208.595H42.3021C42.717 208.595 43.1149 208.43 43.4083 208.137C43.7017 207.843 43.8666 207.445 43.8666 207.03V203.119C43.8666 202.704 43.7017 202.306 43.4083 202.013C43.1149 201.72 42.717 201.555 42.3021 201.555Z" fill="#252160"/>
<path d="M29.7864 194.515V198.426H25.8752V194.515H29.7864ZM29.7864 192.95H25.8752C25.4603 192.95 25.0624 193.115 24.769 193.409C24.4756 193.702 24.3108 194.1 24.3108 194.515V198.426C24.3108 198.841 24.4756 199.239 24.769 199.532C25.0624 199.826 25.4603 199.99 25.8752 199.99H29.7864C30.2013 199.99 30.5992 199.826 30.8926 199.532C31.186 199.239 31.3508 198.841 31.3508 198.426V194.515C31.3508 194.1 31.186 193.702 30.8926 193.409C30.5992 193.115 30.2013 192.95 29.7864 192.95Z" fill="#252160"/>
<circle cx="33.5598" cy="86.2681" r="1.78712" fill="#C8C8C8"/>
<circle cx="33.5599" cy="116.292" r="1.78712" fill="#C8C8C8" fill-opacity="0.8"/>
<circle cx="33.5599" cy="96.2759" r="1.78712" fill="#C8C8C8" fill-opacity="0.9"/>
<circle cx="33.5599" cy="126.3" r="1.78712" fill="#C8C8C8" fill-opacity="0.6"/>
<circle cx="33.5599" cy="106.284" r="1.78712" fill="#C8C8C8" fill-opacity="0.7"/>
<circle cx="33.5599" cy="136.308" r="1.78712" fill="#C8C8C8" fill-opacity="0.55"/>
<circle cx="33.5599" cy="146.315" r="1.78712" fill="#C8C8C8" fill-opacity="0.5"/>
<circle cx="33.5598" cy="254.187" r="1.78712" fill="#C8C8C8"/>
<circle cx="33.5599" cy="284.211" r="1.78712" fill="#C8C8C8" fill-opacity="0.8"/>
<circle cx="33.5599" cy="264.195" r="1.78712" fill="#C8C8C8" fill-opacity="0.9"/>
<circle cx="33.5599" cy="294.219" r="1.78712" fill="#C8C8C8" fill-opacity="0.6"/>
<circle cx="33.5599" cy="274.203" r="1.78712" fill="#C8C8C8" fill-opacity="0.7"/>
<circle cx="33.5599" cy="304.226" r="1.78712" fill="#C8C8C8" fill-opacity="0.55"/>
<circle cx="33.5599" cy="314.234" r="1.78712" fill="#C8C8C8" fill-opacity="0.5"/>
<defs>
<linearGradient id="paint0_linear_74_227" x1="15.5925" y1="338.55" x2="61.014" y2="403.631" gradientUnits="userSpaceOnUse">
<stop stop-color="#26E9CF"/>
<stop offset="1" stop-color="#25CDE1"/>
</linearGradient>
<linearGradient id="paint1_linear_74_227" x1="15.5925" y1="2.71173" x2="61.014" y2="67.7934" gradientUnits="userSpaceOnUse">
<stop stop-color="#26E9CF"/>
<stop offset="1" stop-color="#25CDE1"/>
</linearGradient>
<linearGradient id="paint2_linear_74_227" x1="15.5925" y1="170.631" x2="61.014" y2="235.712" gradientUnits="userSpaceOnUse">
<stop stop-color="#26E9CF"/>
<stop offset="1" stop-color="#25CDE1"/>
</linearGradient>
</defs>
</svg>
