<svg width="19" height="20" viewBox="0 0 19 20" fill="none" xmlns="http://www.w3.org/2000/svg">
<path d="M9.5 0.833252C11.8774 0.833252 12.174 0.842419 13.1067 0.888252C14.0386 0.934085 14.673 1.08717 15.2312 1.3145C15.8087 1.54734 16.2953 1.86267 16.7817 2.37142C17.2267 2.82966 17.571 3.38396 17.7906 3.99575C18.0068 4.57967 18.1538 5.24517 18.1975 6.22142C18.2386 7.19859 18.25 7.50934 18.25 9.99992C18.25 12.4905 18.2413 12.8013 18.1975 13.7784C18.1538 14.7547 18.0068 15.4193 17.7906 16.0041C17.5716 16.6162 17.2272 17.1707 16.7817 17.6284C16.3442 18.0944 15.8151 18.455 15.2312 18.6853C14.6739 18.9118 14.0386 19.0658 13.1067 19.1116C12.174 19.1547 11.8774 19.1666 9.5 19.1666C7.12262 19.1666 6.826 19.1574 5.89325 19.1116C4.96137 19.0658 4.327 18.9118 3.76875 18.6853C3.18454 18.4557 2.65534 18.095 2.21825 17.6284C1.77323 17.1703 1.42894 16.6159 1.20938 16.0041C0.992375 15.4202 0.84625 14.7547 0.8025 13.7784C0.761375 12.8013 0.75 12.4905 0.75 9.99992C0.75 7.50934 0.75875 7.19859 0.8025 6.22142C0.84625 5.24425 0.992375 4.58059 1.20938 3.99575C1.42833 3.38358 1.7727 2.82913 2.21825 2.37142C2.65546 1.90505 3.18462 1.54434 3.76875 1.3145C4.327 1.08717 4.9605 0.934085 5.89325 0.888252C6.826 0.845169 7.12262 0.833252 9.5 0.833252ZM9.5 5.41659C8.33968 5.41659 7.22688 5.89947 6.40641 6.75901C5.58594 7.61855 5.125 8.78434 5.125 9.99992C5.125 11.2155 5.58594 12.3813 6.40641 13.2408C7.22688 14.1004 8.33968 14.5833 9.5 14.5833C10.6603 14.5833 11.7731 14.1004 12.5936 13.2408C13.4141 12.3813 13.875 11.2155 13.875 9.99992C13.875 8.78434 13.4141 7.61855 12.5936 6.75901C11.7731 5.89947 10.6603 5.41659 9.5 5.41659ZM15.1875 5.18742C15.1875 4.88352 15.0723 4.59208 14.8671 4.37719C14.662 4.16231 14.3838 4.04159 14.0938 4.04159C13.8037 4.04159 13.5255 4.16231 13.3204 4.37719C13.1152 4.59208 13 4.88352 13 5.18742C13 5.49131 13.1152 5.78276 13.3204 5.99765C13.5255 6.21253 13.8037 6.33325 14.0938 6.33325C14.3838 6.33325 14.662 6.21253 14.8671 5.99765C15.0723 5.78276 15.1875 5.49131 15.1875 5.18742ZM9.5 7.24992C10.1962 7.24992 10.8639 7.53965 11.3562 8.05537C11.8484 8.5711 12.125 9.27057 12.125 9.99992C12.125 10.7293 11.8484 11.4287 11.3562 11.9445C10.8639 12.4602 10.1962 12.7499 9.5 12.7499C8.80381 12.7499 8.13613 12.4602 7.64384 11.9445C7.15156 11.4287 6.875 10.7293 6.875 9.99992C6.875 9.27057 7.15156 8.5711 7.64384 8.05537C8.13613 7.53965 8.80381 7.24992 9.5 7.24992Z" fill="#0C0C0C"/>
</svg>
