<svg width="115" height="22" viewBox="0 0 115 22" fill="none" xmlns="http://www.w3.org/2000/svg">
<path d="M12.8334 12.3749H15.125L16.0417 8.70825H12.8334V6.87492C12.8334 5.93075 12.8334 5.04159 14.6667 5.04159H16.0417V1.96159C15.7429 1.92217 14.6144 1.83325 13.4228 1.83325C10.934 1.83325 9.16669 3.35217 9.16669 6.14159V8.70825H6.41669V12.3749H9.16669V20.1666H12.8334V12.3749Z" fill="#0C0C0C"/>
<path d="M67.3152 5.1846C66.6153 5.49415 65.8732 5.69745 65.1133 5.78777C65.9143 5.30875 66.5137 4.55486 66.8 3.6666C66.0483 4.11393 65.2242 4.42743 64.3653 4.59702C63.7884 3.97971 63.0237 3.57032 62.19 3.43247C61.3564 3.29462 60.5006 3.43605 59.7556 3.83476C59.0107 4.23348 58.4183 4.86714 58.0707 5.63724C57.723 6.40734 57.6395 7.27073 57.8332 8.09318C56.3088 8.01678 54.8176 7.62066 53.4563 6.93054C52.095 6.24042 50.8941 5.27173 49.9315 4.08735C49.5908 4.6726 49.4117 5.33789 49.4127 6.0151C49.4127 7.34427 50.0892 8.51852 51.1177 9.20602C50.509 9.18685 49.9137 9.02248 49.3815 8.7266V8.77427C49.3817 9.65949 49.688 10.5174 50.2485 11.2026C50.809 11.8877 51.5893 12.358 52.4569 12.5335C51.8919 12.6866 51.2994 12.7092 50.7244 12.5995C50.969 13.3615 51.4458 14.0279 52.088 14.5054C52.7302 14.9829 53.5057 15.2476 54.3058 15.2624C53.5106 15.887 52.6001 16.3487 51.6263 16.6211C50.6525 16.8935 49.6346 16.9713 48.6307 16.8501C50.3831 17.9771 52.4231 18.5754 54.5066 18.5734C61.5585 18.5734 65.4149 12.7315 65.4149 7.6651C65.4149 7.5001 65.4103 7.33327 65.403 7.1701C66.1536 6.62759 66.8015 5.95553 67.3161 5.18552L67.3152 5.1846Z" fill="#0C0C0C"/>
<path d="M104.5 1.83325C106.877 1.83325 107.174 1.84242 108.107 1.88825C109.039 1.93409 109.673 2.08717 110.231 2.3145C110.809 2.54734 111.295 2.86267 111.782 3.37142C112.227 3.82966 112.571 4.38396 112.791 4.99575C113.007 5.57967 113.154 6.24517 113.198 7.22142C113.239 8.19859 113.25 8.50934 113.25 10.9999C113.25 13.4905 113.241 13.8013 113.198 14.7784C113.154 15.7547 113.007 16.4193 112.791 17.0041C112.572 17.6162 112.227 18.1707 111.782 18.6284C111.344 19.0944 110.815 19.455 110.231 19.6853C109.674 19.9118 109.039 20.0658 108.107 20.1116C107.174 20.1547 106.877 20.1666 104.5 20.1666C102.123 20.1666 101.826 20.1574 100.893 20.1116C99.9614 20.0658 99.327 19.9118 98.7687 19.6853C98.1845 19.4557 97.6553 19.095 97.2183 18.6284C96.7732 18.1703 96.4289 17.6159 96.2094 17.0041C95.9924 16.4202 95.8462 15.7547 95.8025 14.7784C95.7614 13.8013 95.75 13.4905 95.75 10.9999C95.75 8.50934 95.7587 8.19859 95.8025 7.22142C95.8462 6.24425 95.9924 5.58059 96.2094 4.99575C96.4283 4.38358 96.7727 3.82913 97.2183 3.37142C97.6555 2.90505 98.1846 2.54434 98.7687 2.3145C99.327 2.08717 99.9605 1.93409 100.893 1.88825C101.826 1.84517 102.123 1.83325 104.5 1.83325ZM104.5 6.41659C103.34 6.41659 102.227 6.89947 101.406 7.75901C100.586 8.61855 100.125 9.78434 100.125 10.9999C100.125 12.2155 100.586 13.3813 101.406 14.2408C102.227 15.1004 103.34 15.5833 104.5 15.5833C105.66 15.5833 106.773 15.1004 107.594 14.2408C108.414 13.3813 108.875 12.2155 108.875 10.9999C108.875 9.78434 108.414 8.61855 107.594 7.75901C106.773 6.89947 105.66 6.41659 104.5 6.41659ZM110.188 6.18742C110.188 5.88352 110.072 5.59208 109.867 5.37719C109.662 5.16231 109.384 5.04159 109.094 5.04159C108.804 5.04159 108.525 5.16231 108.32 5.37719C108.115 5.59208 108 5.88352 108 6.18742C108 6.49131 108.115 6.78276 108.32 6.99765C108.525 7.21253 108.804 7.33325 109.094 7.33325C109.384 7.33325 109.662 7.21253 109.867 6.99765C110.072 6.78276 110.188 6.49131 110.188 6.18742ZM104.5 8.24992C105.196 8.24992 105.864 8.53965 106.356 9.05537C106.848 9.5711 107.125 10.2706 107.125 10.9999C107.125 11.7293 106.848 12.4287 106.356 12.9445C105.864 13.4602 105.196 13.7499 104.5 13.7499C103.804 13.7499 103.136 13.4602 102.644 12.9445C102.152 12.4287 101.875 11.7293 101.875 10.9999C101.875 10.2706 102.152 9.5711 102.644 9.05537C103.136 8.53965 103.804 8.24992 104.5 8.24992Z" fill="#0C0C0C"/>
</svg>
