<svg width="20" height="16" viewBox="0 0 20 16" fill="none" xmlns="http://www.w3.org/2000/svg">
<path d="M19.3152 2.1846C18.6153 2.49415 17.8732 2.69745 17.1133 2.78777C17.9143 2.30875 18.5137 1.55486 18.8 0.666599C18.0483 1.11393 17.2242 1.42743 16.3653 1.59702C15.7884 0.979713 15.0237 0.570316 14.19 0.432469C13.3564 0.294622 12.5006 0.436049 11.7556 0.834765C11.0107 1.23348 10.4183 1.86714 10.0707 2.63724C9.72301 3.40734 9.63951 4.27073 9.83315 5.09318C8.30884 5.01678 6.81762 4.62066 5.45633 3.93054C4.09504 3.24042 2.8941 2.27173 1.93149 1.08735C1.59075 1.6726 1.4117 2.33789 1.41265 3.0151C1.41265 4.34427 2.08915 5.51852 3.11765 6.20602C2.509 6.18685 1.91373 6.02248 1.38149 5.7266V5.77427C1.38167 6.65949 1.68799 7.51741 2.24851 8.20257C2.80904 8.88773 3.58926 9.35795 4.4569 9.53352C3.89188 9.68663 3.29944 9.7092 2.7244 9.59952C2.96903 10.3615 3.44583 11.0279 4.08803 11.5054C4.73023 11.9829 5.50569 12.2476 6.30582 12.2624C5.51059 12.887 4.60007 13.3487 3.62629 13.6211C2.65252 13.8935 1.6346 13.9713 0.630737 13.8501C2.38313 14.9771 4.42308 15.5754 6.50657 15.5734C13.5585 15.5734 17.4149 9.73152 17.4149 4.6651C17.4149 4.5001 17.4103 4.33327 17.403 4.1701C18.1536 3.62759 18.8015 2.95553 19.3161 2.18552L19.3152 2.1846Z" fill="#0C0C0C"/>
</svg>
